<svg width="110" height="71" viewBox="0 0 110 71" fill="none" xmlns="http://www.w3.org/2000/svg">
<g clip-path="url(#clip0_2_3)">
<path d="M7 31C7 35.7739 8.62434 40.6243 12 44C15.3757 47.3757 20.2261 49 25 49C29.7739 49 34.6243 47.3757 38 44C41.3757 40.6243 43 35.7739 43 31C43 26.2261 41.3757 21.3757 38 18C34.6243 14.6243 29.7739 13 25 13C20.2261 13 15.3757 14.6243 12 18C8.62434 21.3757 7 26.2261 7 31Z" stroke="url(#paint0_linear_2_3)" stroke-width="5" stroke-linecap="round" stroke-linejoin="round"/>
<path d="M15 31C15 33.6522 16.1246 36.1246 18 38C19.8754 39.8754 22.3478 41 25 41C27.6522 41 30.1246 39.8754 32 38C33.8754 36.1246 35 33.6522 35 31C35 28.3478 33.8754 25.8754 32 24C30.1246 22.1246 27.6522 21 25 21C22.3478 21 19.8754 22.1246 18 24C16.1246 25.8754 15 28.3478 15 31Z" stroke="url(#paint1_linear_2_3)" stroke-width="5" stroke-linecap="round" stroke-linejoin="round"/>
<g filter="url(#filter0_d_2_3)">
<path d="M6.6752 38C6.59186 38 6.5252 37.975 6.4752 37.925C6.4252 37.875 6.4002 37.8083 6.4002 37.725V28.125H4.6502C4.56686 28.125 4.5002 28.1 4.4502 28.05C4.4002 27.9833 4.3752 27.9083 4.3752 27.825V25.975C4.3752 25.8917 4.4002 25.825 4.4502 25.775C4.5002 25.725 4.56686 25.7 4.6502 25.7H6.4002V24.625C6.4002 23.325 6.74186 22.3417 7.4252 21.675C8.1252 20.9917 9.13353 20.65 10.4502 20.65C10.9502 20.65 11.4335 20.6917 11.9002 20.775C12.3669 20.8417 12.7419 20.9167 13.0252 21C13.2419 21.0833 13.3502 21.2083 13.3502 21.375V23.125C13.3502 23.3417 13.1919 23.4 12.8752 23.3C12.6252 23.2 12.3335 23.125 12.0002 23.075C11.6835 23.0083 11.3669 22.975 11.0502 22.975C10.4335 22.975 9.9752 23.125 9.6752 23.425C9.39186 23.725 9.2502 24.1833 9.2502 24.8V25.7H12.2752C12.4585 25.7 12.5502 25.8 12.5502 26V27.825C12.5502 27.9083 12.5252 27.9833 12.4752 28.05C12.4419 28.1 12.3752 28.125 12.2752 28.125H9.2502V37.725C9.2502 37.9083 9.15853 38 8.9752 38H6.6752ZM21.2131 38C21.0631 38 20.9631 37.9 20.9131 37.7C20.8798 37.4833 20.8381 37.175 20.7881 36.775C20.7381 36.375 20.7048 35.9917 20.6881 35.625L20.4881 34.775V29.55C20.4881 28.85 20.3548 28.3583 20.0881 28.075C19.8214 27.7917 19.3631 27.65 18.7131 27.65C17.4964 27.65 16.9048 28.1417 16.9381 29.125C16.9381 29.3083 16.8548 29.4 16.6881 29.4H14.5131C14.3464 29.4 14.2548 29.2667 14.2381 29C14.1548 27.8667 14.5048 26.9917 15.2881 26.375C16.0881 25.7417 17.2631 25.425 18.8131 25.425C20.3631 25.425 21.5048 25.7583 22.2381 26.425C22.9714 27.0917 23.3381 28.15 23.3381 29.6V34.9C23.3381 35.4667 23.3464 35.9833 23.3631 36.45C23.3964 36.9 23.4381 37.3167 23.4881 37.7C23.5214 37.9 23.4298 38 23.2131 38H21.2131ZM16.6631 38.275C15.7131 38.275 14.9798 37.9833 14.4631 37.4C13.9464 36.8 13.6881 35.95 13.6881 34.85C13.6881 34 13.8464 33.3083 14.1631 32.775C14.4798 32.225 14.9881 31.8 15.6881 31.5C16.4048 31.1833 17.3548 30.975 18.5381 30.875L20.8131 30.65V32.375L18.8631 32.55C17.9631 32.6333 17.3381 32.825 16.9881 33.125C16.6381 33.425 16.4631 33.8917 16.4631 34.525C16.4631 35.0417 16.5631 35.425 16.7631 35.675C16.9631 35.925 17.2714 36.05 17.6881 36.05C18.1714 36.05 18.6548 35.8917 19.1381 35.575C19.6381 35.2583 20.2298 34.7083 20.9131 33.925L21.0631 35.775C20.3131 36.5917 19.5964 37.2167 18.9131 37.65C18.2464 38.0667 17.4964 38.275 16.6631 38.275ZM31.2736 38.275C29.5903 38.275 28.2986 37.8583 27.3986 37.025C26.5153 36.175 26.0736 34.95 26.0736 33.35V30.35C26.0736 28.7667 26.5236 27.55 27.4236 26.7C28.3236 25.85 29.607 25.425 31.2736 25.425C32.3403 25.425 33.2403 25.6083 33.9736 25.975C34.7236 26.325 35.2903 26.8083 35.6736 27.425C36.057 28.0417 36.2236 28.75 36.1736 29.55C36.1736 29.85 36.0736 30 35.8736 30H33.7486C33.5653 30 33.4736 29.8917 33.4736 29.675C33.4736 29.0917 33.282 28.65 32.8986 28.35C32.5153 28.05 31.982 27.9 31.2986 27.9C30.4986 27.9 29.8986 28.1083 29.4986 28.525C29.0986 28.9417 28.8986 29.625 28.8986 30.575V33.125C28.8986 34.0583 29.0986 34.7417 29.4986 35.175C29.8986 35.5917 30.4986 35.8 31.2986 35.8C32.0153 35.8 32.5486 35.6417 32.8986 35.325C33.2653 35.0083 33.4486 34.5667 33.4486 34C33.4486 33.7833 33.5403 33.675 33.7236 33.675H35.8736C36.057 33.675 36.1486 33.7667 36.1486 33.95C36.182 35.3 35.782 36.3583 34.9486 37.125C34.132 37.8917 32.907 38.275 31.2736 38.275ZM43.5492 38.275C42.6326 38.275 41.8909 38.1333 41.3242 37.85C40.7742 37.55 40.3742 37.0917 40.1242 36.475C39.8742 35.8417 39.7492 35.0333 39.7492 34.05V28.125H37.9992C37.8159 28.125 37.7242 28.025 37.7242 27.825V25.975C37.7242 25.7917 37.8159 25.7 37.9992 25.7H39.8242L40.1492 22.7C40.1659 22.5 40.2659 22.4 40.4492 22.4H42.3242C42.4909 22.4 42.5742 22.5 42.5742 22.7L42.5992 25.7H45.8992C46.0826 25.7 46.1742 25.7917 46.1742 25.975V27.825C46.1742 28.025 46.0826 28.125 45.8992 28.125H42.5992V33.875C42.5992 34.575 42.7159 35.075 42.9492 35.375C43.1992 35.675 43.6076 35.825 44.1742 35.825C44.4576 35.825 44.7409 35.7917 45.0242 35.725C45.3242 35.6583 45.6076 35.575 45.8742 35.475C46.0909 35.3917 46.1992 35.4583 46.1992 35.675V37.55C46.1992 37.7 46.1242 37.8083 45.9742 37.875C45.6576 37.9917 45.2909 38.0833 44.8742 38.15C44.4576 38.2333 44.0159 38.275 43.5492 38.275Z" fill="url(#paint2_linear_2_3)"/>
<path d="M51.5457 38.275C50.4957 38.275 49.6957 37.95 49.1457 37.3C48.6124 36.6333 48.3457 35.6333 48.3457 34.3V25.975C48.3457 25.7917 48.4374 25.7 48.6207 25.7H50.9207C51.104 25.7 51.1957 25.7917 51.1957 25.975V33.825C51.1957 34.5083 51.3124 35.0083 51.5457 35.325C51.779 35.6417 52.1457 35.8 52.6457 35.8C53.179 35.8 53.704 35.6333 54.2207 35.3C54.7374 34.95 55.304 34.4583 55.9207 33.825L56.0957 35.8C55.6457 36.2833 55.179 36.7167 54.6957 37.1C54.229 37.4667 53.729 37.7583 53.1957 37.975C52.679 38.175 52.129 38.275 51.5457 38.275ZM56.2707 38C56.0874 38 55.979 37.9167 55.9457 37.75C55.8957 37.4333 55.854 37.1 55.8207 36.75C55.7874 36.4 55.7624 36.05 55.7457 35.7L55.5207 34.6V25.975C55.5207 25.7917 55.6124 25.7 55.7957 25.7H58.0957C58.279 25.7 58.3707 25.7917 58.3707 25.975V34.875C58.3707 35.375 58.379 35.8667 58.3957 36.35C58.4124 36.8167 58.4457 37.2667 58.4957 37.7C58.529 37.9 58.4374 38 58.2207 38H56.2707ZM68.3078 38C68.1578 38 68.0578 37.9 68.0078 37.7C67.9745 37.4833 67.9328 37.175 67.8828 36.775C67.8328 36.375 67.7995 35.9917 67.7828 35.625L67.5828 34.775V29.55C67.5828 28.85 67.4495 28.3583 67.1828 28.075C66.9161 27.7917 66.4578 27.65 65.8078 27.65C64.5911 27.65 63.9995 28.1417 64.0328 29.125C64.0328 29.3083 63.9495 29.4 63.7828 29.4H61.6078C61.4411 29.4 61.3495 29.2667 61.3328 29C61.2495 27.8667 61.5995 26.9917 62.3828 26.375C63.1828 25.7417 64.3578 25.425 65.9078 25.425C67.4578 25.425 68.5995 25.7583 69.3328 26.425C70.0661 27.0917 70.4328 28.15 70.4328 29.6V34.9C70.4328 35.4667 70.4411 35.9833 70.4578 36.45C70.4911 36.9 70.5328 37.3167 70.5828 37.7C70.6161 37.9 70.5245 38 70.3078 38H68.3078ZM63.7578 38.275C62.8078 38.275 62.0745 37.9833 61.5578 37.4C61.0411 36.8 60.7828 35.95 60.7828 34.85C60.7828 34 60.9411 33.3083 61.2578 32.775C61.5745 32.225 62.0828 31.8 62.7828 31.5C63.4995 31.1833 64.4495 30.975 65.6328 30.875L67.9078 30.65V32.375L65.9578 32.55C65.0578 32.6333 64.4328 32.825 64.0828 33.125C63.7328 33.425 63.5578 33.8917 63.5578 34.525C63.5578 35.0417 63.6578 35.425 63.8578 35.675C64.0578 35.925 64.3661 36.05 64.7828 36.05C65.2661 36.05 65.7495 35.8917 66.2328 35.575C66.7328 35.2583 67.3245 34.7083 68.0078 33.925L68.1578 35.775C67.4078 36.5917 66.6911 37.2167 66.0078 37.65C65.3411 38.0667 64.5911 38.275 63.7578 38.275ZM73.7184 38C73.535 38 73.4434 37.9083 73.4434 37.725V21.2C73.4434 21.0167 73.535 20.925 73.7184 20.925H76.0184C76.2017 20.925 76.2934 21.0167 76.2934 21.2V37.725C76.2934 37.9083 76.2017 38 76.0184 38H73.7184ZM79.9684 38C79.785 38 79.6934 37.9083 79.6934 37.725V25.975C79.6934 25.7917 79.785 25.7 79.9684 25.7H82.2684C82.4517 25.7 82.5434 25.7917 82.5434 25.975V37.725C82.5434 37.9083 82.4517 38 82.2684 38H79.9684ZM81.1434 23.925C80.5934 23.925 80.1767 23.7833 79.8934 23.5C79.61 23.2 79.4684 22.825 79.4684 22.375V22C79.4684 21.5333 79.61 21.1667 79.8934 20.9C80.1767 20.6167 80.5934 20.475 81.1434 20.475C81.6934 20.475 82.1017 20.6167 82.3684 20.9C82.6517 21.1667 82.7934 21.5333 82.7934 22V22.375C82.7934 22.825 82.6517 23.2 82.3684 23.5C82.1017 23.7833 81.6934 23.925 81.1434 23.925ZM90.2777 38.275C89.3611 38.275 88.6194 38.1333 88.0527 37.85C87.5027 37.55 87.1027 37.0917 86.8527 36.475C86.6027 35.8417 86.4777 35.0333 86.4777 34.05V28.125H84.7277C84.5444 28.125 84.4527 28.025 84.4527 27.825V25.975C84.4527 25.7917 84.5444 25.7 84.7277 25.7H86.5527L86.8777 22.7C86.8944 22.5 86.9944 22.4 87.1777 22.4H89.0527C89.2194 22.4 89.3027 22.5 89.3027 22.7L89.3277 25.7H92.6277C92.8111 25.7 92.9027 25.7917 92.9027 25.975V27.825C92.9027 28.025 92.8111 28.125 92.6277 28.125H89.3277V33.875C89.3277 34.575 89.4444 35.075 89.6777 35.375C89.9277 35.675 90.3361 35.825 90.9027 35.825C91.1861 35.825 91.4694 35.7917 91.7527 35.725C92.0527 35.6583 92.3361 35.575 92.6027 35.475C92.8194 35.3917 92.9277 35.4583 92.9277 35.675V37.55C92.9277 37.7 92.8527 37.8083 92.7027 37.875C92.3861 37.9917 92.0194 38.0833 91.6027 38.15C91.1861 38.2333 90.7444 38.275 90.2777 38.275ZM97.2678 42.625C97.1678 42.625 97.0928 42.5917 97.0428 42.525C97.0094 42.4583 97.0094 42.3833 97.0428 42.3L98.6428 37.925L94.3178 26.025C94.2511 25.8083 94.3178 25.7 94.5178 25.7H97.0178C97.2011 25.7 97.3094 25.775 97.3428 25.925L99.0178 31.1C99.1844 31.6333 99.3428 32.1917 99.4928 32.775C99.6594 33.3583 99.8094 33.9417 99.9428 34.525H100.018C100.151 33.9417 100.301 33.3583 100.468 32.775C100.634 32.1917 100.793 31.6417 100.943 31.125L102.643 25.925C102.659 25.775 102.759 25.7 102.943 25.7H105.393C105.626 25.7 105.701 25.8083 105.618 26.025L99.8178 42.4C99.7678 42.55 99.6594 42.625 99.4928 42.625H97.2678Z" fill="url(#paint3_linear_2_3)"/>
</g>
<path d="M40.2497 55.5113L35.0001 47" stroke="#CACACA" stroke-opacity="0.9485" stroke-width="5" stroke-linecap="round" stroke-linejoin="round"/>
<path d="M49.4256 49.088C49.1323 49.088 48.8949 49.0427 48.7136 48.952C48.5376 48.856 48.4096 48.7093 48.3296 48.512C48.2496 48.3093 48.2096 48.0507 48.2096 47.736V45.84H47.6496C47.5909 45.84 47.5616 45.808 47.5616 45.744V45.152C47.5616 45.0933 47.5909 45.064 47.6496 45.064H48.2336L48.3376 44.104C48.3429 44.04 48.3749 44.008 48.4336 44.008H49.0336C49.0869 44.008 49.1136 44.04 49.1136 44.104L49.1216 45.064H50.1776C50.2363 45.064 50.2656 45.0933 50.2656 45.152V45.744C50.2656 45.808 50.2363 45.84 50.1776 45.84H49.1216V47.68C49.1216 47.904 49.1589 48.064 49.2336 48.16C49.3136 48.256 49.4443 48.304 49.6256 48.304C49.7163 48.304 49.8069 48.2933 49.8976 48.272C49.9936 48.2507 50.0843 48.224 50.1696 48.192C50.2389 48.1653 50.2736 48.1867 50.2736 48.256V48.856C50.2736 48.904 50.2496 48.9387 50.2016 48.96C50.1003 48.9973 49.9829 49.0267 49.8496 49.048C49.7163 49.0747 49.5749 49.088 49.4256 49.088ZM51.0485 49C50.9898 49 50.9605 48.9707 50.9605 48.912V46.048C50.9605 45.888 50.9578 45.736 50.9525 45.592C50.9471 45.4427 50.9338 45.2987 50.9125 45.16C50.9071 45.096 50.9365 45.064 51.0005 45.064H51.6485C51.7018 45.064 51.7338 45.0907 51.7445 45.144C51.7605 45.24 51.7738 45.3493 51.7845 45.472C51.8005 45.5947 51.8085 45.7093 51.8085 45.816L51.8725 46.216V48.912C51.8725 48.9707 51.8431 49 51.7845 49H51.0485ZM51.7925 46.576L51.7365 45.784C51.8431 45.6347 51.9631 45.4987 52.0965 45.376C52.2298 45.2533 52.3658 45.1573 52.5045 45.088C52.6485 45.0133 52.7871 44.976 52.9205 44.976C53.0058 44.976 53.0751 44.984 53.1285 45C53.1711 45.016 53.1925 45.0507 53.1925 45.104C53.2031 45.2213 53.2058 45.352 53.2005 45.496C53.2005 45.6347 53.1925 45.7653 53.1765 45.888C53.1711 45.952 53.1365 45.976 53.0725 45.96C53.0405 45.9547 53.0005 45.9493 52.9525 45.944C52.9098 45.9387 52.8645 45.936 52.8165 45.936C52.6991 45.936 52.5791 45.9627 52.4565 46.016C52.3391 46.0693 52.2218 46.144 52.1045 46.24C51.9925 46.3307 51.8885 46.4427 51.7925 46.576ZM54.8048 49.088C54.4688 49.088 54.2128 48.984 54.0368 48.776C53.8661 48.5627 53.7808 48.2427 53.7808 47.816V45.152C53.7808 45.0933 53.8101 45.064 53.8688 45.064H54.6048C54.6634 45.064 54.6928 45.0933 54.6928 45.152V47.664C54.6928 47.8827 54.7301 48.0427 54.8048 48.144C54.8794 48.2453 54.9968 48.296 55.1568 48.296C55.3274 48.296 55.4954 48.2427 55.6608 48.136C55.8261 48.024 56.0074 47.8667 56.2048 47.664L56.2608 48.296C56.1168 48.4507 55.9674 48.5893 55.8128 48.712C55.6634 48.8293 55.5034 48.9227 55.3328 48.992C55.1674 49.056 54.9914 49.088 54.8048 49.088ZM56.3168 49C56.2581 49 56.2234 48.9733 56.2128 48.92C56.1968 48.8187 56.1834 48.712 56.1728 48.6C56.1621 48.488 56.1541 48.376 56.1488 48.264L56.0768 47.912V45.152C56.0768 45.0933 56.1061 45.064 56.1648 45.064H56.9008C56.9594 45.064 56.9888 45.0933 56.9888 45.152V48C56.9888 48.16 56.9914 48.3173 56.9968 48.472C57.0021 48.6213 57.0128 48.7653 57.0288 48.904C57.0394 48.968 57.0101 49 56.9408 49H56.3168ZM59.4647 49.088C59.1713 49.088 58.934 49.0427 58.7527 48.952C58.5767 48.856 58.4487 48.7093 58.3687 48.512C58.2887 48.3093 58.2487 48.0507 58.2487 47.736V45.84H57.6887C57.63 45.84 57.6007 45.808 57.6007 45.744V45.152C57.6007 45.0933 57.63 45.064 57.6887 45.064H58.2727L58.3767 44.104C58.382 44.04 58.414 44.008 58.4727 44.008H59.0727C59.126 44.008 59.1527 44.04 59.1527 44.104L59.1607 45.064H60.2167C60.2753 45.064 60.3047 45.0933 60.3047 45.152V45.744C60.3047 45.808 60.2753 45.84 60.2167 45.84H59.1607V47.68C59.1607 47.904 59.198 48.064 59.2727 48.16C59.3527 48.256 59.4833 48.304 59.6647 48.304C59.7553 48.304 59.846 48.2933 59.9367 48.272C60.0327 48.2507 60.1233 48.224 60.2087 48.192C60.278 48.1653 60.3127 48.1867 60.3127 48.256V48.856C60.3127 48.904 60.2887 48.9387 60.2407 48.96C60.1393 48.9973 60.022 49.0267 59.8887 49.048C59.7553 49.0747 59.614 49.088 59.4647 49.088ZM63.4715 49C63.4075 49 63.3755 48.9707 63.3755 48.912V46.4C63.3755 46.1867 63.3355 46.0293 63.2555 45.928C63.1755 45.8267 63.0449 45.776 62.8635 45.776C62.6875 45.776 62.5115 45.8293 62.3355 45.936C62.1595 46.0427 61.9809 46.1947 61.7995 46.392L61.7515 45.76C61.8955 45.6 62.0422 45.464 62.1915 45.352C62.3409 45.2347 62.4982 45.144 62.6635 45.08C62.8342 45.0107 63.0155 44.976 63.2075 44.976C63.5649 44.976 63.8342 45.0827 64.0155 45.296C64.1969 45.504 64.2875 45.824 64.2875 46.256V48.912C64.2875 48.9707 64.2609 49 64.2075 49H63.4715ZM61.0875 49C61.0289 49 60.9995 48.9707 60.9995 48.912V43.624C60.9995 43.5653 61.0289 43.536 61.0875 43.536H61.8235C61.8822 43.536 61.9115 43.5653 61.9115 43.624V48.912C61.9115 48.9707 61.8822 49 61.8235 49H61.0875ZM66.9078 49C66.8492 49 66.8198 48.9707 66.8198 48.912V46.064C66.8198 45.904 66.8172 45.7467 66.8118 45.592C66.8065 45.4373 66.7932 45.296 66.7718 45.168C66.7612 45.0987 66.7932 45.064 66.8678 45.064H67.5078C67.5612 45.064 67.5932 45.088 67.6038 45.136C67.6145 45.2107 67.6252 45.2933 67.6358 45.384C67.6518 45.4747 67.6625 45.568 67.6678 45.664C67.8652 45.456 68.0652 45.2907 68.2678 45.168C68.4705 45.04 68.7025 44.976 68.9638 44.976C69.2198 44.976 69.4225 45.0347 69.5718 45.152C69.7265 45.264 69.8358 45.4347 69.8998 45.664C70.1025 45.4507 70.3078 45.2827 70.5158 45.16C70.7292 45.0373 70.9612 44.976 71.2118 44.976C71.5532 44.976 71.8092 45.0827 71.9798 45.296C72.1558 45.504 72.2438 45.8187 72.2438 46.24V48.912C72.2438 48.9707 72.2145 49 72.1558 49H71.4198C71.3612 49 71.3318 48.9707 71.3318 48.912V46.392C71.3318 46.184 71.2945 46.0293 71.2198 45.928C71.1452 45.8267 71.0278 45.776 70.8678 45.776C70.7292 45.776 70.5878 45.8187 70.4438 45.904C70.3052 45.984 70.1505 46.1067 69.9798 46.272V48.912C69.9798 48.9707 69.9532 49 69.8998 49H69.1638C69.0998 49 69.0678 48.9707 69.0678 48.912V46.392C69.0678 46.184 69.0305 46.0293 68.9558 45.928C68.8865 45.8267 68.7692 45.776 68.6038 45.776C68.4705 45.776 68.3318 45.8187 68.1878 45.904C68.0492 45.984 67.8972 46.1067 67.7318 46.272V48.912C67.7318 48.9707 67.7025 49 67.6438 49H66.9078ZM75.4265 49C75.3785 49 75.3465 48.968 75.3305 48.904C75.3198 48.8347 75.3065 48.736 75.2905 48.608C75.2745 48.48 75.2638 48.3573 75.2585 48.24L75.1945 47.968V46.296C75.1945 46.072 75.1518 45.9147 75.0665 45.824C74.9811 45.7333 74.8345 45.688 74.6265 45.688C74.2371 45.688 74.0478 45.8453 74.0585 46.16C74.0585 46.2187 74.0318 46.248 73.9785 46.248H73.2825C73.2291 46.248 73.1998 46.2053 73.1945 46.12C73.1678 45.7573 73.2798 45.4773 73.5305 45.28C73.7865 45.0773 74.1625 44.976 74.6585 44.976C75.1545 44.976 75.5198 45.0827 75.7545 45.296C75.9891 45.5093 76.1065 45.848 76.1065 46.312V48.008C76.1065 48.1893 76.1091 48.3547 76.1145 48.504C76.1251 48.648 76.1385 48.7813 76.1545 48.904C76.1651 48.968 76.1358 49 76.0665 49H75.4265ZM73.9705 49.088C73.6665 49.088 73.4318 48.9947 73.2665 48.808C73.1011 48.616 73.0185 48.344 73.0185 47.992C73.0185 47.72 73.0691 47.4987 73.1705 47.328C73.2718 47.152 73.4345 47.016 73.6585 46.92C73.8878 46.8187 74.1918 46.752 74.5705 46.72L75.2985 46.648V47.2L74.6745 47.256C74.3865 47.2827 74.1865 47.344 74.0745 47.44C73.9625 47.536 73.9065 47.6853 73.9065 47.888C73.9065 48.0533 73.9385 48.176 74.0025 48.256C74.0665 48.336 74.1651 48.376 74.2985 48.376C74.4531 48.376 74.6078 48.3253 74.7625 48.224C74.9225 48.1227 75.1118 47.9467 75.3305 47.696L75.3785 48.288C75.1385 48.5493 74.9091 48.7493 74.6905 48.888C74.4771 49.0213 74.2371 49.088 73.9705 49.088ZM78.5818 49.088C78.2885 49.088 78.0512 49.0427 77.8698 48.952C77.6938 48.856 77.5658 48.7093 77.4858 48.512C77.4058 48.3093 77.3658 48.0507 77.3658 47.736V45.84H76.8058C76.7472 45.84 76.7178 45.808 76.7178 45.744V45.152C76.7178 45.0933 76.7472 45.064 76.8058 45.064H77.3898L77.4938 44.104C77.4992 44.04 77.5312 44.008 77.5898 44.008H78.1898C78.2432 44.008 78.2698 44.04 78.2698 44.104L78.2778 45.064H79.3338C79.3925 45.064 79.4218 45.0933 79.4218 45.152V45.744C79.4218 45.808 79.3925 45.84 79.3338 45.84H78.2778V47.68C78.2778 47.904 78.3152 48.064 78.3898 48.16C78.4698 48.256 78.6005 48.304 78.7818 48.304C78.8725 48.304 78.9632 48.2933 79.0538 48.272C79.1498 48.2507 79.2405 48.224 79.3258 48.192C79.3952 48.1653 79.4298 48.1867 79.4298 48.256V48.856C79.4298 48.904 79.4058 48.9387 79.3578 48.96C79.2565 48.9973 79.1392 49.0267 79.0058 49.048C78.8725 49.0747 78.7312 49.088 78.5818 49.088ZM81.6365 49.088C81.3432 49.088 81.1059 49.0427 80.9245 48.952C80.7485 48.856 80.6205 48.7093 80.5405 48.512C80.4605 48.3093 80.4205 48.0507 80.4205 47.736V45.84H79.8605C79.8019 45.84 79.7725 45.808 79.7725 45.744V45.152C79.7725 45.0933 79.8019 45.064 79.8605 45.064H80.4445L80.5485 44.104C80.5539 44.04 80.5859 44.008 80.6445 44.008H81.2445C81.2979 44.008 81.3245 44.04 81.3245 44.104L81.3325 45.064H82.3885C82.4472 45.064 82.4765 45.0933 82.4765 45.152V45.744C82.4765 45.808 82.4472 45.84 82.3885 45.84H81.3325V47.68C81.3325 47.904 81.3699 48.064 81.4445 48.16C81.5245 48.256 81.6552 48.304 81.8365 48.304C81.9272 48.304 82.0179 48.2933 82.1085 48.272C82.2045 48.2507 82.2952 48.224 82.3805 48.192C82.4499 48.1653 82.4845 48.1867 82.4845 48.256V48.856C82.4845 48.904 82.4605 48.9387 82.4125 48.96C82.3112 48.9973 82.1939 49.0267 82.0605 49.048C81.9272 49.0747 81.7859 49.088 81.6365 49.088ZM84.6845 49.088C84.1299 49.088 83.7165 48.9653 83.4445 48.72C83.1725 48.4693 83.0365 48.096 83.0365 47.6V46.56C83.0365 46.0427 83.1725 45.6507 83.4445 45.384C83.7219 45.112 84.1299 44.976 84.6685 44.976C85.2072 44.976 85.6152 45.1067 85.8925 45.368C86.1699 45.6293 86.3085 46.0133 86.3085 46.52V47.152C86.3085 47.2107 86.2792 47.24 86.2205 47.24H83.9325V47.56C83.9325 47.8373 83.9912 48.0427 84.1085 48.176C84.2312 48.304 84.4259 48.368 84.6925 48.368C84.9005 48.368 85.0605 48.3307 85.1725 48.256C85.2899 48.176 85.3459 48.064 85.3405 47.92C85.3405 47.8613 85.3725 47.832 85.4365 47.832H86.1485C86.1965 47.832 86.2232 47.8587 86.2285 47.912C86.2392 48.296 86.1139 48.5893 85.8525 48.792C85.5912 48.9893 85.2019 49.088 84.6845 49.088ZM83.9325 46.64H85.4125V46.528C85.4125 46.24 85.3512 46.0293 85.2285 45.896C85.1112 45.7627 84.9272 45.696 84.6765 45.696C84.4259 45.696 84.2392 45.7653 84.1165 45.904C83.9939 46.0373 83.9325 46.2453 83.9325 46.528V46.64ZM87.2594 49C87.2007 49 87.1714 48.9707 87.1714 48.912V46.048C87.1714 45.888 87.1687 45.736 87.1634 45.592C87.1581 45.4427 87.1447 45.2987 87.1234 45.16C87.1181 45.096 87.1474 45.064 87.2114 45.064H87.8594C87.9127 45.064 87.9447 45.0907 87.9554 45.144C87.9714 45.24 87.9847 45.3493 87.9954 45.472C88.0114 45.5947 88.0194 45.7093 88.0194 45.816L88.0834 46.216V48.912C88.0834 48.9707 88.0541 49 87.9954 49H87.2594ZM88.0034 46.576L87.9474 45.784C88.0541 45.6347 88.1741 45.4987 88.3074 45.376C88.4407 45.2533 88.5767 45.1573 88.7154 45.088C88.8594 45.0133 88.9981 44.976 89.1314 44.976C89.2167 44.976 89.2861 44.984 89.3394 45C89.3821 45.016 89.4034 45.0507 89.4034 45.104C89.4141 45.2213 89.4167 45.352 89.4114 45.496C89.4114 45.6347 89.4034 45.7653 89.3874 45.888C89.3821 45.952 89.3474 45.976 89.2834 45.96C89.2514 45.9547 89.2114 45.9493 89.1634 45.944C89.1207 45.9387 89.0754 45.936 89.0274 45.936C88.9101 45.936 88.7901 45.9627 88.6674 46.016C88.5501 46.0693 88.4327 46.144 88.3154 46.24C88.2034 46.3307 88.0994 46.4427 88.0034 46.576ZM91.241 49.088C90.7344 49.088 90.361 48.9867 90.121 48.784C89.8864 48.576 89.7797 48.256 89.801 47.824C89.8064 47.7653 89.8384 47.736 89.897 47.736H90.585C90.6384 47.736 90.665 47.7653 90.665 47.824C90.665 48.0213 90.7104 48.168 90.801 48.264C90.897 48.3547 91.0464 48.4 91.249 48.4C91.457 48.4 91.609 48.3653 91.705 48.296C91.8064 48.2213 91.857 48.112 91.857 47.968C91.857 47.856 91.8224 47.7627 91.753 47.688C91.689 47.6133 91.5797 47.5413 91.425 47.472L90.553 47.072C90.3024 46.9547 90.1184 46.8187 90.001 46.664C89.889 46.504 89.833 46.2987 89.833 46.048C89.833 45.6907 89.9477 45.424 90.177 45.248C90.4064 45.0667 90.7584 44.976 91.233 44.976C91.7237 44.976 92.089 45.072 92.329 45.264C92.5744 45.456 92.6944 45.7333 92.689 46.096C92.689 46.1547 92.657 46.184 92.593 46.184H91.913C91.849 46.184 91.817 46.144 91.817 46.064C91.8224 45.936 91.777 45.8373 91.681 45.768C91.5904 45.6987 91.4544 45.664 91.273 45.664C91.0917 45.664 90.9584 45.696 90.873 45.76C90.7877 45.8187 90.745 45.912 90.745 46.04C90.745 46.1467 90.7717 46.2293 90.825 46.288C90.8837 46.3467 90.993 46.4133 91.153 46.488L92.017 46.872C92.2784 46.9947 92.4677 47.136 92.585 47.296C92.7077 47.456 92.769 47.6667 92.769 47.928C92.769 48.3067 92.641 48.5947 92.385 48.792C92.129 48.9893 91.7477 49.088 91.241 49.088ZM94.0982 49.088C93.9062 49.088 93.7569 49.04 93.6502 48.944C93.5489 48.8427 93.4982 48.7093 93.4982 48.544V48.408C93.4982 48.2373 93.5489 48.104 93.6502 48.008C93.7569 47.912 93.9062 47.864 94.0982 47.864C94.2956 47.864 94.4422 47.912 94.5382 48.008C94.6396 48.104 94.6902 48.2373 94.6902 48.408V48.544C94.6902 48.7093 94.6396 48.8427 94.5382 48.944C94.4422 49.04 94.2956 49.088 94.0982 49.088Z" fill="#61BAFF"/>
</g>
<defs>
<filter id="filter0_d_2_3" x="0.375195" y="20.475" width="109.368" height="30.15" filterUnits="userSpaceOnUse" color-interpolation-filters="sRGB">
<feFlood flood-opacity="0" result="BackgroundImageFix"/>
<feColorMatrix in="SourceAlpha" type="matrix" values="0 0 0 0 0 0 0 0 0 0 0 0 0 0 0 0 0 0 127 0" result="hardAlpha"/>
<feOffset dy="4"/>
<feGaussianBlur stdDeviation="2"/>
<feComposite in2="hardAlpha" operator="out"/>
<feColorMatrix type="matrix" values="0 0 0 0 0 0 0 0 0 0 0 0 0 0 0 0 0 0 0.25 0"/>
<feBlend mode="normal" in2="BackgroundImageFix" result="effect1_dropShadow_2_3"/>
<feBlend mode="normal" in="SourceGraphic" in2="effect1_dropShadow_2_3" result="shape"/>
</filter>
<linearGradient id="paint0_linear_2_3" x1="25" y1="13" x2="25" y2="49" gradientUnits="userSpaceOnUse">
<stop offset="0.32" stop-color="#CACACA" stop-opacity="0.9485"/>
<stop offset="0.5" stop-color="#F5F5F5"/>
<stop offset="0.725" stop-color="#CACACA" stop-opacity="0.9485"/>
</linearGradient>
<linearGradient id="paint1_linear_2_3" x1="25" y1="21" x2="25" y2="41" gradientUnits="userSpaceOnUse">
<stop offset="0.055" stop-color="#CACACA" stop-opacity="0.9485"/>
<stop offset="0.5" stop-color="#F5F5F5"/>
<stop offset="0.955" stop-color="#CACACA" stop-opacity="0.9485"/>
</linearGradient>
<linearGradient id="paint2_linear_2_3" x1="14.0486" y1="18.749" x2="49.3484" y2="35.7746" gradientUnits="userSpaceOnUse">
<stop stop-color="#3241A1"/>
<stop offset="1" stop-color="#4CD6FC"/>
</linearGradient>
<linearGradient id="paint3_linear_2_3" x1="-17" y1="16.9279" x2="129.35" y2="33.7084" gradientUnits="userSpaceOnUse">
<stop stop-color="#61BAFF"/>
<stop offset="1" stop-color="#3A7099"/>
</linearGradient>
<clipPath id="clip0_2_3">
<rect width="110" height="71" fill="white"/>
</clipPath>
</defs>
</svg>
